<svg width="52" height="82" viewBox="0 0 52 82" fill="none" xmlns="http://www.w3.org/2000/svg">
<path d="M22.3448 70.2143C22.2194 70.4624 22.0891 70.7105 21.9588 70.9537C21.2447 72.2769 20.5113 73.7509 19.5318 74.899C17.9588 76.7476 16.2556 73.3569 15.5318 72.2283C15.0155 71.4256 14.5137 70.6132 14.0215 69.7959C16.7574 68.7013 19.913 68.0592 22.3448 70.2143Z" fill="#F5DD3F"/>
<path d="M31.1603 4.79814C31.2278 5.68839 30.8611 6.53485 30.5813 7.35699C30.3304 8.09643 30.1084 8.8456 29.9202 9.6045C29.5776 10.9958 29.3509 12.4066 29.2158 13.832C28.0915 13.1801 26.7357 12.8396 25.539 12.5769C22.7646 11.9688 19.913 11.7109 17.071 11.7888C15.7248 11.8277 14.3786 11.9444 13.0421 12.139C11.7055 12.3288 10.2242 12.499 8.98415 13.0682C8.87318 13.1168 8.77185 13.1752 8.67535 13.2287C8.77667 10.3585 9.01793 7.56131 9.81407 4.78355C10.2194 3.37764 10.7308 2.09335 12.0722 1.35877C13.1579 0.765275 14.422 0.58528 15.6331 0.487985C18.5909 0.254477 21.568 0.444202 24.4968 0.886893C26.8177 1.24202 30.9335 1.69444 31.1603 4.79328V4.79814Z" fill="#D68321"/>
<path d="M30.8466 16.2352C31.2664 17.3394 31.1458 18.687 30.2097 19.4605C30.1277 19.3632 30.0408 19.2659 29.9443 19.1735C28.2652 17.5632 25.5053 17.0816 23.3098 16.7216C20.6464 16.2838 17.9347 16.2352 15.2471 16.4589C13.9154 16.5708 12.5933 16.7508 11.2761 16.9843C10.1325 17.1886 8.81045 17.3151 7.83095 17.9962C7.7827 18.0254 7.7441 18.0643 7.70068 18.0983C7.35809 16.96 7.18922 15.6417 7.79718 14.5665C8.54507 13.2433 10.2145 13.0147 11.5656 12.7666C14.3786 12.2412 17.2544 12.0709 20.106 12.2509C22.7212 12.4163 25.5583 12.7569 28.0143 13.7444C29.1916 14.2163 30.3786 14.9995 30.8515 16.2352H30.8466Z" fill="#B5E1E2"/>
<path d="M29.8961 19.7621C30.7212 20.7205 30.9431 22.2042 30.1084 23.2015C28.9118 21.5767 26.562 21.207 24.6802 20.92C21.7706 20.4773 18.8225 20.3459 15.8889 20.5259C14.4703 20.6135 13.0517 20.7691 11.6476 20.9978C10.3883 21.2021 9.00828 21.3772 7.90333 22.0729C7.72963 22.1799 7.56075 22.3064 7.40635 22.4426C6.78391 21.4989 6.66811 20.2924 7.20852 19.2757C7.8599 18.04 9.19646 17.7822 10.4558 17.539C13.1772 17.0136 15.9468 16.712 18.7212 16.7606C21.4184 16.8044 24.1301 17.1741 26.7115 17.9817C27.8647 18.3416 29.0855 18.8184 29.9009 19.7621H29.8961Z" fill="#B5E1E2"/>
<path d="M30.0746 23.9798C30.7357 25.3273 29.9974 27.2051 28.3376 27.064C28.3279 27.0397 28.3086 27.0154 28.2845 26.9959C25.7996 24.9236 21.9974 24.6414 18.8997 24.5198C15.2326 24.3787 11.3967 24.8506 7.93228 26.1008C7.8985 26.1154 7.8792 26.1397 7.86955 26.1689C7.86473 26.1689 7.8599 26.1592 7.85508 26.1592C6.40273 25.5316 6.54748 23.7852 7.5704 22.8171C8.52094 21.922 9.88162 21.6982 11.1168 21.4842C13.8141 21.0172 16.5595 20.8274 19.3002 20.9004C21.8768 20.9685 24.5837 21.168 27.0831 21.8539C28.2893 22.1847 29.5004 22.8025 30.0843 23.9798H30.0746Z" fill="#B5E1E2"/>
<path d="M27.4884 57.9309C26.4992 60.9324 25.2592 63.9048 23.9854 66.7896C23.5366 67.8063 23.0638 68.8133 22.562 69.8008C20.1108 67.6847 16.5885 68.1468 13.9154 69.616C13.6307 69.1392 13.346 68.6625 13.0662 68.1809C11.4691 65.4128 9.85267 62.5572 8.65122 59.5898C8.53542 59.2979 8.43409 59.006 8.34724 58.7141C9.36051 60.0762 10.919 61.2292 12.6416 60.5773C14.2049 59.9887 14.7598 58.3833 15.0348 56.8412C15.609 58.8017 16.8153 60.9227 19.0975 60.6892C21.3074 60.4605 22.147 58.252 22.5234 56.2817C23.3533 58.1984 25.6934 59.0254 27.498 57.9357L27.4884 57.9309Z" fill="#FCF8D3"/>
<path d="M51.9178 80.7659C52.1542 80.9411 51.8406 81.2621 51.5608 81.1162C50.1808 80.4011 48.6753 79.4817 46.948 80.1773C46.2483 80.4546 45.7079 80.9508 45.0855 81.3059C43.9468 81.9578 42.7212 82.1913 41.3509 81.8167C39.995 81.4421 38.9576 80.6297 38.2097 79.7103C37.153 78.4114 36.4341 75.872 34.2146 75.6142C31.8599 75.3418 29.6645 77.2585 28.0963 78.4211C26.9769 79.253 25.8334 80.7173 24.3762 81.194C21.7803 82.0454 20.2411 78.7228 20.2556 77.3022C20.2556 77.1952 20.4775 77.166 20.5065 77.2779C20.7815 78.212 21.1723 79.039 21.954 79.793C22.9962 80.7951 24.41 80.4303 25.4088 79.5741C26.7212 78.4455 28.1301 77.3801 29.6452 76.4071C31.5222 75.2007 34.2966 73.9018 36.3135 75.6628C38.5282 77.5941 40.1784 83.4026 44.9166 80.547C45.8961 79.9584 46.8273 79.2773 48.1542 79.2773C49.6211 79.2725 50.919 80.0411 51.9226 80.7757L51.9178 80.7659Z" fill="#471E1C"/>
<path d="M36.6995 27.3703C36.6561 27.2244 36.5017 27.1758 36.3714 27.2341C36.024 27.3995 35.7731 27.6622 35.5801 27.9687C35.5801 27.7839 35.5801 27.5941 35.5656 27.4141C35.5366 27.1028 35.4305 26.9033 35.141 26.7817C35.0541 26.7477 34.9335 26.806 34.8949 26.8839C34.7116 27.2244 34.5813 27.5844 34.5041 27.9493C34.4462 27.7595 34.3883 27.5698 34.3304 27.3849C34.2339 27.0785 34.1518 26.7769 33.8093 26.6942C33.7031 26.6698 33.5584 26.7282 33.5391 26.8498C33.4281 27.599 33.4184 28.4601 33.6983 29.1849C33.4281 29.0244 33.1241 28.8881 32.8153 28.8395C32.5692 28.8006 32.2508 28.8881 32.2266 29.1849C32.1977 29.5254 32.6175 29.7443 32.878 29.8562C33.1386 29.9681 33.4233 30.0265 33.6983 29.9681C33.7031 30.1189 33.7417 30.2697 33.8237 30.4059C33.9685 30.6589 34.258 30.8876 34.5523 30.873C33.7658 34.2637 31.2809 36.9101 27.6814 37.236C27.7875 33.9767 28.0143 30.727 28.3666 27.4822C30.2146 27.6671 31.2037 25.5461 30.5523 23.9796C30.4944 23.8386 30.4269 23.7023 30.3545 23.571C31.3726 22.5348 31.2278 20.944 30.4703 19.796C31.7055 18.789 31.7827 16.9306 31.0252 15.5734C30.673 14.9409 30.1711 14.4496 29.5921 14.0604C29.6066 14.0361 29.6163 14.0021 29.6211 13.968C29.7755 12.2751 30.0698 10.5967 30.5282 8.95732C30.919 7.56114 31.7875 6.03362 31.5608 4.54501C31.1458 1.85481 28.1301 1.08131 25.9009 0.692134C22.673 0.137554 19.3871 -0.1446 16.1205 0.0743129C13.7851 0.229985 11.112 0.677541 10.036 3.06613C9.34605 4.59365 9.01312 6.37415 8.75257 8.02329C8.46789 9.78919 8.30383 11.6086 8.41964 13.3988C6.90456 14.4837 6.79358 16.5706 7.49804 18.2733C6.33037 19.3825 6.15667 21.3867 7.18441 22.6564C6.7212 23.138 6.38827 23.7461 6.36415 24.4223C6.3352 25.3272 6.86113 26.1882 7.72 26.4558C7.72482 26.4558 7.72965 26.4558 7.7393 26.4558C7.48839 29.686 7.36294 32.9307 7.30022 36.1804C5.48116 35.9663 3.90335 34.8718 2.91903 33.3248C2.42205 32.5464 2.07464 31.6756 1.84304 30.7757C1.68381 30.153 1.62108 29.506 1.50528 28.8736C1.78514 28.8492 2.05052 28.6984 2.19044 28.4406C2.41722 28.4649 2.65365 28.4455 2.87561 28.4017C3.14099 28.3482 3.58007 28.246 3.59455 27.8957C3.6042 27.6185 3.32434 27.4531 3.08791 27.4141C2.88043 27.3801 2.65848 27.4093 2.44135 27.4676C2.66813 27.0152 2.81288 26.5336 2.86596 26.0228C2.89973 25.6872 3.03484 24.8942 2.60058 24.7677C2.34485 24.6899 2.13737 24.8796 1.97814 25.1861C1.98779 25.0693 1.98779 24.9574 1.97814 24.8553C1.95401 24.578 1.79961 24.3153 1.51976 24.2375C1.01312 24.1012 0.87802 24.5342 0.87802 24.9818C0.776693 24.7774 0.593339 24.5926 0.34726 24.6704C-0.410279 24.9088 0.270058 26.7379 0.525788 27.3849C0.381035 27.5552 0.294184 27.7741 0.303834 28.0271C0.318309 28.4649 0.718792 28.8346 1.12892 28.8346C1.14822 28.8395 1.17235 28.8492 1.19165 28.8541C1.03725 30.6151 1.85269 32.6729 2.83218 33.9913C3.90818 35.4458 5.50046 36.4528 7.29539 36.6377C7.22784 40.6122 7.25196 44.5915 7.26161 48.5514C7.26644 50.4146 7.27609 52.2778 7.30504 54.141C7.32917 55.7366 7.41602 57.3274 7.92748 58.8501C8.97935 61.983 10.7743 64.9796 12.4052 67.8352C13.2399 69.2995 14.1132 70.7395 15.0204 72.1648C15.7393 73.2935 16.4534 74.821 17.6066 75.5653C18.5523 76.1783 19.4015 75.7696 20.024 74.928C20.9842 73.634 21.7803 72.1746 22.533 70.7492C24.0819 67.8158 25.3461 64.7413 26.5378 61.6424C27.059 60.29 27.7103 58.8987 28.0819 57.4782C28.106 57.4539 28.135 57.4296 28.1591 57.4101C28.2315 57.3371 28.2122 57.2496 28.1543 57.1961C28.1784 57.0988 28.2025 56.9966 28.2218 56.8993C28.5499 55.2842 28.1977 53.5718 28.0626 51.9519C27.6573 47.2136 27.5318 42.451 27.6669 37.7031C31.2761 37.4306 34.5089 34.6042 34.755 30.9265C34.8322 30.9508 34.9094 30.9654 34.9866 30.9654C35.6187 30.9654 35.942 30.3427 35.8358 29.793C36.0626 29.5643 36.2508 29.1898 36.3762 28.9903C36.6898 28.4941 36.878 27.959 36.7091 27.3752L36.6995 27.3703ZM9.81409 4.78338C10.2194 3.37747 10.7309 2.09318 12.0722 1.3586C13.1579 0.765106 14.422 0.58511 15.6331 0.487816C18.5909 0.254308 21.568 0.444033 24.4968 0.886724C26.8177 1.24185 30.9335 1.69427 31.1603 4.79311C31.2278 5.68335 30.8611 6.52982 30.5813 7.35196C30.3304 8.0914 30.1084 8.84057 29.9202 9.59947C29.5777 10.9908 29.3509 12.4016 29.2158 13.8269C28.0915 13.175 26.7357 12.8345 25.5391 12.5718C22.7646 11.9637 19.913 11.7059 17.071 11.7837C15.7248 11.8227 14.3786 11.9394 13.0421 12.134C11.7055 12.3237 10.2242 12.494 8.98417 13.0632C8.8732 13.1118 8.77187 13.1702 8.67537 13.2237C8.77669 10.3535 9.01795 7.55628 9.81409 4.77851V4.78338ZM7.7972 14.5664C8.54509 13.2432 10.2146 13.0145 11.5656 12.7664C14.3786 12.241 17.2544 12.0708 20.106 12.2507C22.7212 12.4162 25.5584 12.7567 28.0143 13.7442C29.1917 14.2161 30.3786 14.9993 30.8515 16.235C31.2713 17.3393 31.1506 18.6868 30.2146 19.4603C30.1325 19.363 30.0457 19.2657 29.9492 19.1733C28.2701 17.563 25.5101 17.0814 23.3147 16.7214C20.6512 16.2836 17.9395 16.235 15.252 16.4587C13.9202 16.5706 12.5982 16.7506 11.2809 16.9841C10.1374 17.1885 8.81529 17.3149 7.8358 17.996C7.78755 18.0252 7.74895 18.0641 7.70552 18.0982C7.36294 16.9598 7.19406 15.6415 7.80202 14.5664H7.7972ZM7.20854 19.2754C7.85993 18.0398 9.19648 17.782 10.4558 17.5387C13.1772 17.0133 15.9468 16.7117 18.7212 16.7604C21.4184 16.8041 24.1301 17.1739 26.7116 17.9814C27.8647 18.3414 29.0855 18.8181 29.9009 19.7619C30.726 20.7203 30.948 22.204 30.1132 23.2013C28.9166 21.5764 26.5668 21.2067 24.685 20.9197C21.7755 20.477 18.8274 20.3457 15.8937 20.5257C14.4751 20.6132 13.0565 20.7689 11.6524 20.9975C10.3931 21.2019 9.01312 21.377 7.90818 22.0727C7.73447 22.1797 7.56559 22.3062 7.41119 22.4424C6.78876 21.4986 6.67295 20.2922 7.21336 19.2754H7.20854ZM7.5656 22.8121C8.51614 21.917 9.87681 21.6932 11.112 21.4792C13.8093 21.0121 16.5547 20.8224 19.2954 20.8954C21.872 20.9635 24.5789 21.1629 27.0783 21.8489C28.2845 22.1797 29.4956 22.7975 30.0795 23.9748C30.7405 25.3223 30.0023 27.2001 28.3424 27.059C28.3328 27.0347 28.3135 27.0104 28.2894 26.9909C25.8044 24.9185 22.0023 24.6364 18.9046 24.5147C15.2375 24.3737 11.4015 24.8456 7.93713 26.0958C7.90335 26.1104 7.88405 26.1347 7.8744 26.1639C7.86958 26.1639 7.86475 26.1542 7.85993 26.1542C6.40757 25.5266 6.55233 23.7802 7.57525 22.8121H7.5656ZM21.9588 70.9535C21.2447 72.2767 20.5113 73.7508 19.5318 74.8988C17.9588 76.7474 16.2556 73.3567 15.5318 72.2281C15.0155 71.4254 14.5137 70.613 14.0216 69.7957C16.7574 68.7012 19.913 68.059 22.3448 70.2141C22.2194 70.4622 22.0891 70.7103 21.9588 70.9535ZM23.9854 66.7844C23.5366 67.8012 23.0638 68.8082 22.562 69.7957C20.1108 67.6796 16.5885 68.1417 13.9154 69.6109C13.6307 69.1341 13.3461 68.6574 13.0662 68.1758C11.4691 65.4077 9.85269 62.5521 8.65124 59.5846C8.53544 59.2928 8.43411 59.0009 8.34726 58.709C9.36053 60.0711 10.919 61.2241 12.6416 60.5722C14.2049 59.9836 14.7598 58.3782 15.0348 56.8361C15.609 58.7966 16.8153 60.9176 19.0976 60.6841C21.3075 60.4554 22.147 58.2468 22.5234 56.2766C23.3533 58.1933 25.6935 59.0203 27.498 57.9306C26.5089 60.9322 25.2689 63.9045 23.995 66.7893L23.9854 66.7844ZM27.3629 47.7536C27.445 49.4319 27.5656 51.1103 27.7152 52.7837C27.8599 54.3745 28.0674 55.8826 27.6476 57.4296C25.7176 58.816 22.9239 57.775 22.6778 55.2356C22.6488 54.9485 22.2676 54.9534 22.2339 55.2356C21.9974 57.2009 21.3509 60.256 18.8418 60.3387C16.3762 60.4214 15.5656 57.5998 15.1796 55.6685C15.1265 55.4107 14.7888 55.508 14.7598 55.7269C14.5668 57.3566 14.2676 59.5603 12.521 60.256C10.7164 60.9711 9.28815 59.5749 8.20733 58.2614C7.46427 55.4739 7.7007 52.4286 7.68622 49.5779C7.6428 41.8235 7.97573 34.0691 7.92748 26.3147C7.94195 26.3147 7.96125 26.3196 7.98055 26.3147C11.3629 25.4001 14.7405 24.8358 18.2532 24.9137C20.0288 24.9526 21.8044 25.1326 23.5511 25.4731C25.1337 25.7796 26.7019 26.2369 27.9709 27.2877C27.223 34.0788 27.0107 40.9284 27.3533 47.7536H27.3629Z" fill="#471E1C"/>
<path d="M27.7151 52.784C27.8599 54.3747 28.0674 55.8828 27.6476 57.4298C25.7176 58.8162 22.9238 57.7752 22.6778 55.2358C22.6488 54.9488 22.2676 54.9536 22.2338 55.2358C21.9974 57.2011 21.3509 60.2562 18.8418 60.3389C16.3762 60.4216 15.5656 57.6 15.1796 55.6687C15.1265 55.4109 14.7887 55.5082 14.7598 55.7271C14.5668 57.3568 14.2676 59.5605 12.5209 60.2562C10.7164 60.9713 9.28813 59.5751 8.20731 58.2617C7.46424 55.4742 7.70067 52.4288 7.6862 49.5781C7.64277 41.8237 7.9757 34.0693 7.92745 26.3149C7.94193 26.3149 7.96123 26.3198 7.98053 26.3149C11.3629 25.4004 14.7405 24.836 18.2531 24.9139C20.0288 24.9528 21.8044 25.1328 23.5511 25.4733C25.1337 25.7798 26.7019 26.2371 27.9709 27.2879C27.223 34.079 27.0107 40.9286 27.3533 47.7538C27.4353 49.4322 27.5559 51.1105 27.7055 52.784H27.7151Z" fill="#F5DD3F"/>
<g style="mix-blend-mode:multiply" opacity="0.51">
<path d="M18.1952 68.7889C19.1603 69.2121 19.6717 70.3796 19.4305 71.5229C19.1458 72.8607 18.2339 73.8628 17.5294 74.9817C18.1615 75.5217 18.8611 75.6919 19.5318 74.899C20.5113 73.7509 21.2447 72.2769 21.9588 70.9537C22.0891 70.7104 22.2194 70.4623 22.3448 70.2142C21.1 69.1099 19.6621 68.7451 18.1904 68.7889H18.1952Z" fill="#F5DD3F"/>
</g>
<g style="mix-blend-mode:multiply" opacity="0.51">
<path d="M31.1603 4.79816C30.9335 1.69932 26.8129 1.2469 24.4968 0.891779C23.4208 0.726378 22.34 0.599894 21.2495 0.512329C23.2085 0.702054 25.1434 1.35393 26.5089 2.8474C28.2073 4.70087 28.0867 7.86781 25.7465 9.14237C23.5656 10.3294 20.9214 9.8283 18.5571 9.90127C15.194 9.99857 11.5511 10.0521 8.7236 12.1342C8.7043 12.499 8.68982 12.8639 8.67535 13.2336C8.77185 13.1752 8.878 13.1217 8.98415 13.0731C10.2242 12.5039 11.7055 12.3336 13.0421 12.1439C14.3786 11.9542 15.7248 11.8374 17.071 11.7937C19.5752 11.7207 22.0939 11.9201 24.5595 12.3823C25.5149 12.4893 26.4848 12.679 27.2519 13.0147C27.9323 13.2239 28.6078 13.4817 29.2158 13.832C29.3509 12.4066 29.5776 10.9958 29.9202 9.60452C30.1084 8.84562 30.3304 8.09645 30.5813 7.35701C30.8611 6.53487 31.2278 5.68354 31.1603 4.79816Z" fill="#D68321"/>
</g>
<g style="mix-blend-mode:multiply" opacity="0.51">
<path d="M30.8466 16.2352C30.4413 15.1649 29.4956 14.4352 28.492 13.9536C28.7236 14.2941 28.8297 14.7028 28.767 15.1941C28.6995 15.7195 28.3472 15.9919 27.8261 15.919C25.8478 15.6368 23.9419 15.2768 21.9395 15.2233C20.0867 15.1747 18.2387 15.2671 16.3907 15.3887C14.7694 15.4957 13.1434 15.5687 11.527 15.7292C10.2001 15.8606 8.73324 16.1233 7.78753 17.1546C7.70068 17.247 7.609 17.3103 7.5125 17.3443C7.56557 17.5973 7.6283 17.8503 7.70068 18.0935C7.7441 18.0595 7.78753 18.0205 7.83095 17.9913C8.81045 17.3103 10.1373 17.1838 11.2761 16.9795C12.5933 16.746 13.9154 16.566 15.2471 16.4541C17.843 16.2352 20.463 16.279 23.0348 16.6779C23.9033 16.746 24.767 16.8725 25.5921 17.1108C25.732 17.1497 25.872 17.1984 26.0119 17.247C27.4787 17.6168 28.9166 18.1811 29.9443 19.1686C30.036 19.2562 30.1229 19.3535 30.2097 19.4556C31.1458 18.6821 31.2664 17.3346 30.8466 16.2303V16.2352Z" fill="#B5E1E2"/>
</g>
<g style="mix-blend-mode:multiply" opacity="0.51">
<path d="M11.1313 12.9223C13.8913 12.3969 16.796 12.2315 19.6283 12.2218C16.9311 12.0856 14.2194 12.2656 11.5656 12.7569C10.7743 12.9029 9.87679 13.0439 9.11926 13.3991C9.78512 13.2045 10.4606 13.0439 11.1313 12.9174V12.9223Z" fill="#B5E1E2"/>
</g>
<g style="mix-blend-mode:multiply" opacity="0.51">
<path d="M29.8961 19.7621C29.2544 19.0178 28.3665 18.5703 27.4498 18.2346C27.6331 18.4925 27.7537 18.7989 27.7827 19.1638C27.8068 19.4703 27.5366 19.8303 27.2375 19.8886C25.3412 20.2535 23.4063 19.6308 21.5004 19.5384C19.8744 19.4605 18.2483 19.4022 16.6174 19.4216C13.3702 19.4605 9.80924 19.7135 6.96243 21.4551C7.04928 21.7859 7.18439 22.1021 7.37257 22.394C7.48837 22.321 7.609 22.2578 7.73445 22.1897C7.79235 22.1507 7.84542 22.1118 7.90333 22.0729C9.00827 21.3821 10.3882 21.2021 11.6476 20.9978C13.0517 20.7691 14.4703 20.6086 15.8889 20.5259C18.8225 20.3459 21.7706 20.4821 24.6802 20.92C26.5668 21.207 28.9118 21.5767 30.1084 23.2015C30.9431 22.2042 30.7212 20.7205 29.8961 19.7621Z" fill="#B5E1E2"/>
</g>
<g style="mix-blend-mode:multiply" opacity="0.51">
<path d="M30.0746 23.9799C29.4908 22.8026 28.2797 22.1848 27.0734 21.854C26.9817 21.8297 26.8901 21.8053 26.7984 21.781C26.9238 21.8491 27.0493 21.9221 27.1651 22.0048C28.3328 22.8561 27.2375 23.9166 26.2483 24.1793C24.8153 24.5636 23.3195 23.9069 21.8961 23.7804C20.0288 23.615 18.1229 23.6491 16.2507 23.7804C14.4944 23.9069 12.7525 24.1696 11.0203 24.4517C9.78029 24.6561 8.28933 24.8944 7.41599 25.8917C7.54145 25.989 7.68137 26.0766 7.85025 26.1495C7.85508 26.1495 7.8599 26.1544 7.86473 26.1593C7.87438 26.1301 7.89368 26.1058 7.92745 26.0912C10.9721 24.9917 14.2966 24.4955 17.5487 24.4858C18.6874 24.3885 19.9226 24.369 21.0083 24.6269C23.5945 24.8361 26.34 25.3615 28.2845 26.9863C28.3086 27.0106 28.3279 27.0301 28.3376 27.0544C29.9974 27.2003 30.7405 25.3225 30.0746 23.9701V23.9799Z" fill="#B5E1E2"/>
</g>
<g style="mix-blend-mode:multiply" opacity="0.51">
<path d="M15.1989 57.5757C15.1217 57.4005 15.0541 57.2254 14.9914 57.0454C14.9576 57.2254 14.9142 57.4103 14.8708 57.5903C14.9769 57.5659 15.0879 57.5562 15.1989 57.5805V57.5757Z" fill="#FCF8D3"/>
</g>
<g style="mix-blend-mode:multiply" opacity="0.51">
<path d="M11.7007 60.7864C12.8008 60.7621 13.6162 60.261 14.0939 59.4146C13.7417 59.9205 13.2785 60.3291 12.6416 60.5724C12.106 60.7767 11.5849 60.801 11.0879 60.7037C11.2809 60.7621 11.4835 60.7913 11.7007 60.7864Z" fill="#FCF8D3"/>
</g>
<g style="mix-blend-mode:multiply" opacity="0.51">
<path d="M23.5029 57.5952C23.3967 59.0692 22.919 60.5481 22.6102 61.9832C22.3448 63.2237 22.0264 64.5469 21.2833 65.5928C20.4727 66.7312 19.3822 67.1009 18.0457 67.2128C16.4148 67.3539 14.6729 67.2955 13.4763 68.5992C13.4425 68.6333 13.4088 68.6673 13.375 68.6917C13.5535 68.9981 13.7369 69.3046 13.9202 69.6111C14.229 69.4408 14.5475 69.29 14.8708 69.1489C14.9045 69.1246 14.9431 69.1003 14.9769 69.076C15.112 68.9884 15.2423 68.9544 15.3629 68.9544C17.7706 68.0592 20.5354 68.0447 22.5668 69.796C23.0686 68.8084 23.5415 67.8014 23.9902 66.7847C25.264 63.8999 26.5089 60.9275 27.4932 57.926C26.1904 58.7141 24.603 58.4952 23.5077 57.5903L23.5029 57.5952Z" fill="#FCF8D3"/>
</g>
<g style="mix-blend-mode:multiply" opacity="0.51">
<path d="M8.70429 26.1252C8.73324 26.1252 8.76219 26.1204 8.79597 26.1252C9.86231 26.1787 10.9094 25.7166 11.9419 25.4296C10.8611 25.6193 9.78511 25.8577 8.70912 26.1301L8.70429 26.1252Z" fill="#F5DD3F"/>
</g>
<g style="mix-blend-mode:multiply" opacity="0.51">
<path d="M8.88282 58.8406C9.11442 59.113 9.35568 59.4098 9.61623 59.687C10.451 60.3341 11.416 60.6989 12.5258 60.2562C13.4088 59.906 13.9202 59.1665 14.2387 58.3103C14.2387 58.179 14.2869 58.0525 14.3641 57.9357C14.5427 57.3422 14.644 56.7098 14.7164 56.1309C14.6778 55.985 14.6392 55.8342 14.6006 55.6882C14.1663 56.8898 13.6452 58.0574 12.5933 58.7919C11.4015 59.6238 10.0167 59.4633 8.84904 58.8065C8.85869 58.8163 8.87317 58.8309 8.88282 58.8406Z" fill="#F5DD3F"/>
</g>
<g style="mix-blend-mode:multiply" opacity="0.51">
<path d="M27.3629 47.7538C27.0203 40.9285 27.2326 34.079 27.9805 27.2878C26.7598 26.2711 25.2495 25.8138 23.7248 25.5073C23.7441 25.5852 23.7538 25.6727 23.7393 25.77C23.5849 27.0105 23.6235 28.2705 23.5222 29.5159C23.5077 29.7153 23.4257 29.871 23.3098 29.9877C23.2905 30.2164 23.2712 30.4402 23.2519 30.6591C23.0734 32.6196 22.7887 34.5606 22.644 36.526C22.3304 40.7145 22.2097 44.9176 22.065 49.1159C22.0119 50.5996 21.9974 52.0834 21.9685 53.5671C21.9395 54.832 21.8382 56.1406 21.3364 57.313C20.6609 58.8989 18.755 60.2415 17.1289 59.6724C17.2351 59.7989 17.3509 59.9156 17.4667 60.0178C17.8575 60.2318 18.3111 60.3534 18.8418 60.334C21.3509 60.2513 21.9974 57.1962 22.2339 55.2309C22.2676 54.9487 22.6488 54.9438 22.6778 55.2309C22.7308 55.7757 22.8997 56.2525 23.1554 56.6465C23.3243 56.7389 23.4594 56.8946 23.5077 57.0941C24.5354 58.174 26.3014 58.3929 27.6476 57.4249C28.0722 55.8779 27.8599 54.3698 27.7152 52.779C27.5656 51.1056 27.4449 49.4272 27.3629 47.7489V47.7538Z" fill="#F5DD3F"/>
</g>
<g style="mix-blend-mode:soft-light" opacity="0.66">
<path d="M10.2531 27.9981C10.065 27.5165 9.43288 27.3706 9.13855 27.8522C8.58849 28.7473 8.73807 30.1775 8.67052 31.2089C8.59814 32.3375 8.54024 33.471 8.49682 34.5996C8.40031 37.032 8.41479 39.4643 8.45339 41.8967C8.49199 44.2755 8.68017 46.6495 8.83457 49.0284C8.98415 51.3586 9.13373 53.7034 9.57764 55.9996C9.59694 56.1066 9.75616 56.0774 9.76099 55.9752C9.80441 53.6012 9.63071 51.2321 9.58729 48.8581C9.54386 46.5376 9.62589 44.2172 9.66931 41.8967C9.71274 39.5762 9.83819 37.2557 9.95882 34.9352C10.0167 33.8066 10.0891 32.6731 10.1663 31.5445C10.2097 30.9218 10.2531 30.304 10.3014 29.6813C10.3497 29.0976 10.4751 28.5478 10.2531 27.9933V27.9981Z" fill="white"/>
</g>
<g style="mix-blend-mode:soft-light" opacity="0.66">
<path d="M12.9021 1.62634C10.8466 3.71818 9.54869 6.72945 9.84302 9.69694C9.85749 9.82829 10.0601 9.8818 10.0891 9.731C10.6247 6.95323 11.7538 4.50627 13.8237 2.55551C14.4365 1.97661 13.4956 1.02312 12.9021 1.62634Z" fill="white"/>
</g>
<path d="M15.4208 32.6731C15.3581 32.4494 15.2471 32.2548 15.0831 32.0942C14.9962 32.0261 14.9045 31.958 14.8177 31.8899C14.615 31.7732 14.3931 31.7099 14.1566 31.7099C13.9781 31.7051 13.8092 31.7391 13.6548 31.8218C13.4908 31.8753 13.3509 31.9678 13.2351 32.0942C13.1096 32.2159 13.0179 32.3569 12.9648 32.5175C12.8828 32.6731 12.8442 32.8434 12.8539 33.0234C12.8683 33.1402 12.8828 33.2569 12.9021 33.3737C12.9648 33.5974 13.0758 33.792 13.2399 33.9526C13.3267 34.0207 13.4184 34.0888 13.5053 34.1569C13.7079 34.2736 13.9299 34.3369 14.1663 34.3369C14.3448 34.3417 14.5137 34.3077 14.6681 34.225C14.8322 34.1715 14.9721 34.0791 15.0879 33.9526C15.2133 33.831 15.305 33.6899 15.3581 33.5293C15.4401 33.3737 15.4787 33.2034 15.4691 33.0234C15.4546 32.9067 15.4401 32.7899 15.4208 32.6731Z" fill="#471E1C"/>
<path d="M22.147 32.6731C22.0843 32.4494 21.9733 32.2548 21.8092 32.0942C21.7224 32.0261 21.6307 31.958 21.5439 31.8899C21.3412 31.7732 21.1193 31.7099 20.8828 31.7099C20.7043 31.7051 20.5354 31.7391 20.381 31.8218C20.217 31.8753 20.077 31.9678 19.9612 32.0942C19.8358 32.2159 19.7441 32.3569 19.691 32.5175C19.609 32.6731 19.5704 32.8434 19.5801 33.0234C19.5945 33.1402 19.609 33.2569 19.6283 33.3737C19.691 33.5974 19.802 33.792 19.9661 33.9526C20.0529 34.0207 20.1446 34.0888 20.2314 34.1569C20.4341 34.2736 20.656 34.3369 20.8925 34.3369C21.071 34.3417 21.2399 34.3077 21.3943 34.225C21.5583 34.1715 21.6983 34.0791 21.8141 33.9526C21.9395 33.831 22.0312 33.6899 22.0843 33.5293C22.1663 33.3737 22.2049 33.2034 22.1952 33.0234C22.1808 32.9067 22.1663 32.7899 22.147 32.6731Z" fill="#471E1C"/>
<path d="M10.4269 33.8699C8.25073 33.8699 8.24591 37.2849 10.4269 37.2849C12.6078 37.2849 12.6078 33.8699 10.4269 33.8699Z" fill="#E9B9AB"/>
<path d="M23.5077 34.6337C21.3316 34.6337 21.3267 38.0487 23.5077 38.0487C25.6886 38.0487 25.6886 34.6337 23.5077 34.6337Z" fill="#E9B9AB"/>
<path d="M23.7779 38.5351C22.9962 38.4476 22.3159 38.146 21.7899 37.5476C21.6114 37.3433 21.3123 37.6449 21.4908 37.8492C21.8382 38.2335 22.2869 38.5108 22.7743 38.6276C22.7598 38.6519 22.7453 38.6762 22.7405 38.7103C22.1277 41.3178 19.8599 43.3172 17.1434 43.2296C15.7972 43.1858 14.4606 42.6604 13.4667 41.741C12.3231 40.6853 11.884 39.3038 11.3726 37.8833C11.6862 37.7714 11.9661 37.6011 12.1639 37.4016C12.3569 37.2022 12.0481 36.8957 11.8647 37.1C11.5994 37.3968 11.2519 37.6157 10.8611 37.6984C10.4269 37.7908 10.0843 37.6449 9.67414 37.5573C9.65001 37.5525 9.63071 37.5816 9.65001 37.6011C9.97329 37.9854 10.4848 38.073 10.9866 37.9903C11.5994 41.0551 13.9395 43.5945 17.153 43.6966C20.024 43.7842 22.5957 41.6437 23.1844 38.8367C23.194 38.7832 23.1892 38.7346 23.1699 38.6957C23.3774 38.7103 23.5897 38.6957 23.7972 38.6422C23.8551 38.6276 23.8358 38.5497 23.7827 38.5449L23.7779 38.5351Z" fill="#471E1C"/>
<path d="M13.8913 30.0462C13.6018 29.8273 13.0758 30.0657 12.8394 30.27C12.6319 30.4451 12.3376 30.8684 12.4872 31.1505C12.5016 31.1748 12.5306 31.1749 12.5499 31.1603C12.6464 31.0776 12.6898 30.9462 12.7718 30.8489C12.8587 30.7468 12.9649 30.6592 13.0758 30.5862C13.1916 30.5132 13.3074 30.4597 13.4425 30.4354C13.5776 30.4062 13.7176 30.4403 13.8478 30.3916C14.0022 30.3284 14.0215 30.1484 13.8913 30.0511V30.0462Z" fill="#471E1C"/>
<path d="M22.3303 27.1079C22.0408 27.0641 21.9202 27.5116 22.2097 27.5506C22.4896 27.5895 22.7308 27.6916 22.9576 27.857C23.1796 28.0224 23.3291 28.2316 23.5125 28.4359C23.5607 28.4895 23.6428 28.4457 23.6476 28.3824C23.6765 27.6916 22.9335 27.2003 22.3352 27.1127L22.3303 27.1079Z" fill="#471E1C"/>
</svg>
